<?xml version="1.0" encoding="UTF-8" standalone="no"?>
<!-- Created with Inkscape (http://www.inkscape.org/) -->

<svg
   width="400"
   height="400"
   viewBox="0 0 105.83333 105.83333"
   version="1.1"
   id="svg1"
   inkscape:version="1.3.2 (091e20e, 2023-11-25, custom)"
   sodipodi:docname="logo_square.svg"
   inkscape:export-filename="logo_square.png"
   inkscape:export-xdpi="96"
   inkscape:export-ydpi="96"
   xmlns:inkscape="http://www.inkscape.org/namespaces/inkscape"
   xmlns:sodipodi="http://sodipodi.sourceforge.net/DTD/sodipodi-0.dtd"
   xmlns="http://www.w3.org/2000/svg"
   xmlns:svg="http://www.w3.org/2000/svg">
  <sodipodi:namedview
     id="namedview1"
     pagecolor="#ffffff"
     bordercolor="#666666"
     borderopacity="1.0"
     inkscape:showpageshadow="2"
     inkscape:pageopacity="0.0"
     inkscape:pagecheckerboard="0"
     inkscape:deskcolor="#d1d1d1"
     inkscape:document-units="mm"
     inkscape:zoom="1.4485269"
     inkscape:cx="201.23892"
     inkscape:cy="196.40643"
     inkscape:window-width="1920"
     inkscape:window-height="1009"
     inkscape:window-x="-8"
     inkscape:window-y="-8"
     inkscape:window-maximized="1"
     inkscape:current-layer="layer1" />
  <defs
     id="defs1" />
  <g
     inkscape:label="Layer 1"
     inkscape:groupmode="layer"
     id="layer1">
    <path
       style="fill:#000000;stroke-width:4.04389"
       d="m 55.301879,82.164229 c -0.228521,-0.172878 -0.228521,-0.175258 0.0059,-0.180615 0.198468,-0.0059 0.208288,-0.0238 0.05891,-0.123773 -0.101456,-0.06635 -0.910718,-0.109781 -1.858929,-0.09849 -0.924083,0.01198 -1.742352,-0.01786 -1.818495,-0.06576 -0.0726,-0.04701 -0.138664,-0.184185 -0.138664,-0.304279 0,-0.19073 0.142826,-0.229414 1.102909,-0.30044 0.606235,-0.04464 1.578756,-0.19073 2.160027,-0.323914 1.05048,-0.240721 1.05887,-0.240721 1.37133,-0.0089 0.462191,0.343435 0.494295,0.992278 0.06545,1.329079 -0.37709,0.296661 -0.633044,0.317428 -0.951278,0.07707 z m 2.59725,-6.926584 c -0.358105,-0.250837 -0.333229,-0.376643 0.09224,-0.470195 0.915422,-0.201144 0.177341,-0.298057 -2.265568,-0.298057 h -2.623406 v -0.298088 c 0,-0.27137 0.04581,-0.298061 0.510007,-0.298061 1.013553,0 2.552111,-0.259166 3.5809,-0.60287 1.555696,-0.520034 2.161543,-0.461833 2.525867,0.242804 0.324719,0.628014 0.167522,1.30197 -0.410474,1.757405 -0.261847,0.206204 -1.096334,0.186865 -1.409895,-0.03274 z m 0.986984,-7.255383 c -0.196982,-0.08687 -0.458917,-0.27107 -0.581984,-0.409639 -0.22138,-0.248756 -0.220784,-0.253218 0.09491,-0.373072 0.176152,-0.06635 0.453024,-0.155031 0.618016,-0.196088 0.164252,-0.04137 0.269584,-0.102964 0.235662,-0.137467 -0.03274,-0.03391 -1.586045,-0.05177 -3.448073,-0.03808 -2.954402,0.02083 -3.409539,1.78e-4 -3.574769,-0.164842 -0.373162,-0.372833 -0.122291,-0.508962 1.090025,-0.592099 1.654632,-0.11366 2.971423,-0.373994 4.656554,-0.921433 1.70593,-0.554162 2.060554,-0.544224 2.738617,0.07707 0.417676,0.38298 0.437967,0.435886 0.437967,1.175603 0,0.660627 -0.03927,0.822197 -0.298534,1.097732 -0.556454,0.602218 -1.289177,0.782208 -1.967538,0.482809 z m -1.073125,-7.364611 c -0.36465,-0.201444 -0.894354,-0.723441 -0.894354,-0.882126 0,-0.07796 0.170795,-0.175853 0.381016,-0.217808 0.798512,-0.159785 1.288403,-0.324661 1.288403,-0.433922 0,-0.06964 -2.083941,-0.125563 -5.395585,-0.144613 -5.374191,-0.03065 -5.395944,-0.03155 -5.431413,-0.280592 -0.03927,-0.241911 0.02679,-0.252029 1.848192,-0.322488 2.601594,-0.100571 5.000227,-0.544017 7.649817,-1.414569 1.362762,-0.447726 2.045853,-0.428354 2.708236,0.07707 0.472693,0.360574 0.879568,1.117995 0.883762,1.645409 0.0031,0.710227 -0.549936,1.599494 -1.213719,1.94519 -0.381015,0.198171 -1.485503,0.215727 -1.824355,0.02678 z m -3.040752,-6.841337 c -0.397382,-0.178233 -1.192356,-0.852518 -1.192356,-1.011799 0,-0.04137 0.442551,-0.226436 0.983712,-0.411336 0.980824,-0.335075 1.372135,-0.539136 1.037388,-0.540832 -0.09493,-4.77e-4 -3.687483,-0.0017 -7.983166,-0.0028 -4.295801,-0.0011 -7.882802,-0.04701 -7.971233,-0.102943 -0.08838,-0.05506 -0.141345,-0.20174 -0.117834,-0.325048 0.04048,-0.210667 0.238638,-0.22852 3.320691,-0.296658 4.547234,-0.100866 6.624688,-0.42324 10.84961,-1.684179 1.799631,-0.537024 2.486025,-0.584931 3.195689,-0.222868 0.948182,0.483733 1.39722,1.345088 1.312297,2.517774 -0.05891,0.80985 -0.360722,1.321998 -1.088328,1.845067 -0.59835,0.430112 -1.671683,0.537944 -2.346414,0.235661 z m -2.528932,-7.56076 c -0.422258,-0.134197 -1.018256,-0.562374 -1.165365,-0.837343 -0.104134,-0.194599 -0.03274,-0.239828 0.715823,-0.42187 0.458261,-0.112178 0.832284,-0.251729 0.832284,-0.310377 0,-0.130033 0.636971,-0.116932 -5.365831,-0.110399 -2.787415,0.0031 -5.140226,-0.04137 -5.228659,-0.09878 -0.08838,-0.05771 -0.141631,-0.205311 -0.117833,-0.328706 0.03869,-0.206203 0.216619,-0.230306 2.187878,-0.301333 2.94598,-0.105929 4.069542,-0.3257 7.749378,-1.515405 1.228594,-0.397265 2.06921,-0.152049 2.737039,0.798095 0.295173,0.419757 0.353524,0.617393 0.346322,1.162359 -0.0059,0.543392 -0.0726,0.732843 -0.366614,1.098269 -0.196385,0.2431 -0.512624,0.532858 -0.702849,0.64435 -0.4308,0.252327 -1.195063,0.356648 -1.621368,0.221382 z m -1.289773,-8.383372 c -0.560381,-0.379708 -0.563654,-0.530211 -0.0059,-0.623137 0.259169,-0.04374 0.570885,-0.154728 0.691484,-0.246373 0.189839,-0.143721 -0.272261,-0.166932 -3.37279,-0.1702 -3.044652,-0.0031 -3.61518,-0.03065 -3.741016,-0.182698 -0.310317,-0.373876 0.03928,-0.497001 1.639248,-0.571242 1.631634,-0.07618 3.16894,-0.401785 4.552174,-0.965113 0.860046,-0.350308 1.418494,-0.392293 1.89324,-0.142523 0.424251,0.223163 0.679312,0.540801 0.849572,1.055211 0.465492,1.409628 -1.260167,2.684522 -2.498075,1.84578 z m 1.489401,-7.948084 c -0.133606,-0.05684 -0.310318,-0.185376 -0.392145,-0.284758 -0.128837,-0.155319 -0.08123,-0.192516 0.337782,-0.263336 0.268392,-0.04522 0.469419,-0.139557 0.445853,-0.209179 -0.02678,-0.0851 -0.881591,-0.117833 -2.60814,-0.09969 -2.234533,0.02381 -2.586627,0.0021 -2.725257,-0.165145 -0.255301,-0.307491 -0.01198,-0.409284 1.133409,-0.485814 1.27296,-0.08481 2.41345,-0.309931 3.262101,-0.644411 0.340431,-0.134196 0.829132,-0.243993 1.086159,-0.243993 1.118055,0 1.570482,1.507345 0.675235,2.250244 -0.234471,0.194302 -0.912148,0.275534 -1.215085,0.145795 z m 2.887601,-7.720456 c -0.03927,-0.04316 0.01198,-0.148475 0.129731,-0.234769 0.174068,-0.132124 -0.09761,-0.157999 -1.701051,-0.162769 -1.049289,-0.0031 -1.980184,-0.05118 -2.068616,-0.107412 -0.08838,-0.05565 -0.141936,-0.202931 -0.118427,-0.326179 0.03274,-0.195788 0.195195,-0.233576 1.251329,-0.297729 0.664762,-0.04047 1.590837,-0.167219 2.058084,-0.281783 0.704486,-0.17258 0.910393,-0.182994 1.20637,-0.061 0.602275,0.249349 0.635689,1.143258 0.04581,1.408824 -0.339122,0.154424 -0.69068,0.181508 -0.809909,0.06218 z"
       id="path5" />
    <path
       id="text1-0"
       style="font-size:24.4981px;line-height:1.25;font-family:Audiowide;-inkscape-font-specification:'Audiowide, Normal';stroke-width:1.88265"
       d="m 68.840179,20.611249 c -0.384943,0 -0.713888,0.109202 -1.018881,0.307522 -0.313828,0.204119 -0.562226,0.470548 -0.788188,0.817494 -0.21275,0.357125 -0.387472,0.764147 -0.523901,1.275014 -0.129443,0.484833 -0.196979,0.984426 -0.196979,1.545015 v 53.835648 c 0,0.600731 0.06875,1.101957 0.196979,1.582536 0.133607,0.500395 0.30279,0.900632 0.50947,1.25252 0.229711,0.328973 0.488761,0.598438 0.802619,0.8025 0.29785,0.193707 0.626141,0.300022 1.018881,0.300022 h 29.047917 c 1.542454,0 2.763514,-0.429934 3.705484,-1.185035 l 0.006,-0.0089 c 1.03496,-0.862935 1.82758,-1.879138 2.42708,-3.067533 a 1.3326491,2.079658 0 0 1 0.008,-0.02381 c 0.64346,-1.241956 1.08733,-2.548242 1.35052,-3.960042 a 1.3326491,2.079658 0 0 1 0.006,-0.03779 c 0.30145,-1.521953 0.44215,-2.884834 0.44215,-4.110038 v -2.302056 c 0,-2.172791 -0.15829,-4.116526 -0.45655,-5.842571 -0.30679,-1.774248 -0.71633,-3.330359 -1.22078,-4.687558 -0.51164,-1.376688 -1.10294,-2.56571 -1.77824,-3.592535 a 1.3326491,2.079658 0 0 1 -0.0149,-0.0238 c -0.67563,-1.054431 -1.39592,-1.946198 -2.16747,-2.685022 a 1.3326491,2.079658 0 0 1 -0.384498,-2.98505 c 0.918128,-1.994646 1.572388,-4.072517 1.980088,-6.255069 v -0.0089 c 0.42241,-2.295204 0.62478,-4.376022 0.62478,-6.255069 v -2.250035 c 0,-2.409166 -0.28654,-4.314785 -0.78819,-5.782554 a 1.3326491,2.079658 0 0 1 -0.006,-0.0238 c -0.53107,-1.602685 -1.18018,-2.823726 -1.956578,-3.757654 a 1.3326491,2.079658 0 0 1 -0.0238,-0.03006 c -0.800422,-1.011666 -1.642735,-1.719813 -2.555447,-2.160042 -0.97419,-0.469895 -1.853399,-0.690024 -2.638552,-0.690024 z m 3.796805,7.792582 h 21.809941 c 0.76019,0 1.579799,0.348226 2.153124,1.275015 0.573353,0.926817 0.768965,2.182579 0.768965,3.375051 v 2.250038 c 0,1.776657 -0.181803,3.44804 -0.562314,4.972554 -5.37e-4,0.0022 5.64e-4,0.0059 0,0.0089 -0.356974,1.47241 -0.896497,2.79408 -1.595598,3.885059 -0.706808,1.102968 -1.562035,1.945102 -2.51837,2.527504 a 1.3326491,2.079658 0 0 1 -0.02975,0.01484 c -0.970647,0.554191 -2.030442,0.817526 -3.162392,0.817526 H 77.028844 v 7.882593 h 15.917709 c 1.13317,0 2.198737,0.281783 3.172002,0.870014 0.962852,0.552138 1.828225,1.383057 2.53762,2.490013 0.705201,1.100558 1.24169,2.43413 1.614815,3.922549 0.38507,1.505173 0.56714,3.165904 0.56714,4.942562 v 2.205045 c 0,0.828982 -0.0511,1.629491 -0.31244,2.445022 -0.18953,0.591 -0.4504,1.182774 -0.898688,1.620028 -0.344596,0.336055 -0.736085,0.520598 -1.100619,0.57749 -0.231199,0.03601 -0.442252,0.05265 -0.639203,0.05265 H 72.636061 A 1.3326491,2.079658 0 0 1 71.304779,72.46061 V 30.481492 a 1.3326491,2.079658 0 0 1 1.331282,-2.077544 z" />
    <path
       id="text1-0-5"
       style="font-size:24.4981px;line-height:1.25;font-family:Audiowide;-inkscape-font-specification:'Audiowide, Normal';stroke-width:1.88265"
       d="m 2.5291941,20.611369 c -0.3849448,0 -0.7138896,0.109202 -1.0188825,0.307519 -0.3138271,0.204122 -0.5622247,0.47055 -0.7881868,0.817498 -0.21275114,0.357121 -0.38747251,0.764144 -0.52390115,1.275012 -0.12944308,0.484833 -0.19698032,0.984455 -0.19698032,1.545045 v 53.83565 c 0,0.600699 0.06874749,1.101926 0.19698032,1.582505 0.13360583,0.500393 0.30278973,0.900661 0.50947025,1.252518 0.22970987,0.328975 0.4887597,0.598439 0.8026177,0.8025 0.2978502,0.193709 0.6261418,0.300025 1.0188825,0.300025 H 31.577111 c 1.542453,0 2.763521,-0.429936 3.705485,-1.185007 l 0.0059,-0.0089 c 1.034964,-0.862963 1.827587,-1.879166 2.427095,-3.067561 a 1.3326491,2.079658 0 0 1 0.0089,-0.0238 c 0.643457,-1.241956 1.087317,-2.548214 1.350501,-3.960041 a 1.3326491,2.079658 0 0 1 0.0059,-0.03779 c 0.301451,-1.521954 0.442164,-2.884806 0.442164,-4.11004 v -2.302026 c 0,-2.172822 -0.158302,-4.116556 -0.456566,-5.842572 -0.306785,-1.774332 -0.716338,-3.330444 -1.22078,-4.687643 -0.511642,-1.376688 -1.102939,-2.56571 -1.778235,-3.592533 a 1.3326491,2.079658 0 0 1 -0.01484,-0.02381 c -0.675679,-1.054391 -1.395965,-1.946187 -2.167521,-2.68501 a 1.3326491,2.079658 0 0 1 -0.384498,-2.985022 c 0.91813,-1.994674 1.572388,-4.072545 1.980111,-6.255096 v -0.0089 c 0.422406,-2.295204 0.624771,-4.376021 0.624771,-6.255068 v -2.250079 c 0,-2.409167 -0.286542,-4.314784 -0.788203,-5.782555 a 1.3326491,2.079658 0 0 1 -0.0059,-0.02379 c -0.530571,-1.602552 -1.179682,-2.82359 -1.956086,-3.757519 a 1.3326491,2.079658 0 0 1 -0.0238,-0.03006 C 32.529759,22.4431 31.687447,21.734953 30.774733,21.294724 29.800544,20.824829 28.921334,20.604727 28.136182,20.604727 Z M 6.3259975,28.40398 H 28.135941 c 0.760188,0 1.579797,0.348196 2.153122,1.275014 0.573355,0.926789 0.768966,2.18255 0.768966,3.375024 v 2.250034 c 0,1.776659 -0.181804,3.448044 -0.562316,4.972556 -5.35e-4,0.0022 5.65e-4,0.0059 0,0.0089 -0.356974,1.472412 -0.896496,2.794082 -1.595597,3.885058 -0.706808,1.102999 -1.562034,1.945105 -2.518369,2.527534 a 1.3326491,2.079658 0 0 1 -0.02975,0.01483 c -0.970642,0.554191 -2.030437,0.817524 -3.162387,0.817524 H 10.717853 v 7.882595 h 15.917709 c 1.133172,0 2.198738,0.28178 3.172005,0.870015 0.962851,0.552138 1.828224,1.383084 2.537618,2.490042 0.705202,1.100528 1.241689,2.434101 1.614821,3.922549 0.385064,1.505142 0.567135,3.165875 0.567135,4.942532 v 2.205046 c 0,0.829012 -0.05118,1.629489 -0.312431,2.445023 -0.18954,0.590999 -0.450405,1.18277 -0.898696,1.620025 -0.344598,0.336085 -0.736088,0.520597 -1.100619,0.57749 -0.2312,0.036 -0.442255,0.05265 -0.639205,0.05265 H 6.325076 A 1.3326491,2.079658 0 0 1 4.9937938,72.460691 V 30.482584 A 1.3326491,2.079658 0 0 1 6.325076,28.40507 Z" />
  </g>
</svg>
